<svg
  xmlns="http://www.w3.org/2000/svg"
  viewBox="0 0 64 64"
  width="48"
  height="48"
  fill="none"
  stroke="#009688"
  stroke-width="2"
  stroke-linecap="round"
  stroke-linejoin="round"
>
  <g transform="translate(32,32)">
    <!-- main arms -->
    <line x1="0" y1="-28" x2="0" y2="28" />
    <line x1="-24.25" y1="-14" x2="24.25" y2="14" />
    <line x1="-24.25" y1="14" x2="24.25" y2="-14" />

    <!-- upper branches -->
    <line x1="0" y1="-20" x2="6" y2="-26" />
    <line x1="0" y1="-20" x2="-6" y2="-26" />
    <line x1="12" y1="-7" x2="18" y2="-13" />
    <line x1="-12" y1="-7" x2="-18" y2="-13" />
    <line x1="12" y1="7" x2="18" y2="13" />
    <line x1="-12" y1="7" x2="-18" y2="13" />
    <line x1="0" y1="20" x2="6" y2="26" />
    <line x1="0" y1="20" x2="-6" y2="26" />

    <!-- center hex -->
    <polygon points="0,-6 5,-3 5,3 0,6 -5,3 -5,-3" />
  </g>
</svg>
